<svg width="112" height="23" viewBox="0 0 112 23" fill="none" xmlns="http://www.w3.org/2000/svg">
<path d="M33.377 22H30.1094L37.4375 1.62891H40.9922L48.3066 22H45.0527L39.2832 5.33398H39.1191L33.377 22ZM33.9238 14.0293H44.4922V16.5996H33.9238V14.0293ZM60.1131 6.71484L54.5897 22H51.3905L45.8534 6.71484H49.0389L52.9217 18.5H53.0858L56.9412 6.71484H60.1131ZM66.943 22.3145C65.4483 22.3145 64.154 21.9909 63.0602 21.3438C61.9665 20.6966 61.1234 19.7852 60.5309 18.6094C59.9476 17.4245 59.6559 16.0436 59.6559 14.4668C59.6559 12.8991 59.943 11.5182 60.5173 10.3242C61.1006 9.13021 61.9164 8.20052 62.9645 7.53516C64.0218 6.86068 65.2614 6.52344 66.6833 6.52344C67.5492 6.52344 68.3877 6.66471 69.1989 6.94727C70.0101 7.22982 70.7393 7.67643 71.3864 8.28711C72.0335 8.89779 72.544 9.69076 72.9177 10.666C73.3005 11.6413 73.4919 12.8171 73.4919 14.1934V15.2598H61.3376V13.0312H71.9606L70.5798 13.7695C70.5798 12.8307 70.4339 12.0013 70.1423 11.2812C69.8506 10.5612 69.4131 10.0007 68.8298 9.59961C68.2555 9.18945 67.5401 8.98438 66.6833 8.98438C65.8265 8.98438 65.0928 9.18945 64.4821 9.59961C63.8805 10.0098 63.4203 10.5521 63.1012 11.2266C62.7822 11.901 62.6227 12.6393 62.6227 13.4414V14.959C62.6227 16.0072 62.805 16.8958 63.1696 17.625C63.5342 18.3542 64.0401 18.9102 64.6872 19.293C65.3434 19.6758 66.1045 19.8672 66.9704 19.8672C67.5355 19.8672 68.0459 19.7852 68.5016 19.6211C68.9665 19.457 69.3675 19.2109 69.7048 18.8828C70.042 18.5547 70.2972 18.1491 70.4704 17.666L73.2868 18.1992C73.0589 19.0195 72.6579 19.7396 72.0837 20.3594C71.5095 20.9792 70.7848 21.4622 69.9098 21.8086C69.044 22.1458 68.055 22.3145 66.943 22.3145ZM74.73 22V6.71484H77.5874V9.16211H77.7515C78.034 8.3418 78.5262 7.69466 79.228 7.2207C79.939 6.73763 80.7411 6.49609 81.6343 6.49609C81.8166 6.49609 82.0308 6.50521 82.2769 6.52344C82.5321 6.53255 82.7372 6.54622 82.8921 6.56445V9.4082C82.7736 9.37174 82.5594 9.33529 82.2495 9.29883C81.9487 9.26237 81.6434 9.24414 81.3335 9.24414C80.6317 9.24414 80.0028 9.39453 79.4468 9.69531C78.8999 9.98698 78.467 10.3926 78.148 10.9121C77.8381 11.4225 77.6831 12.015 77.6831 12.6895V22H74.73ZM83.4877 22V6.71484H86.4408V22H83.4877ZM84.9779 4.36328C84.4584 4.36328 84.0163 4.1901 83.6517 3.84375C83.2871 3.4974 83.1048 3.08268 83.1048 2.59961C83.1048 2.10742 83.2871 1.68815 83.6517 1.3418C84.0163 0.995443 84.4584 0.822266 84.9779 0.822266C85.4883 0.822266 85.9258 0.995443 86.2904 1.3418C86.6641 1.68815 86.8509 2.10742 86.8509 2.59961C86.8509 3.08268 86.6641 3.4974 86.2904 3.84375C85.9258 4.1901 85.4883 4.36328 84.9779 4.36328ZM91.3977 12.9355V22H88.4445V6.71484H91.3156V9.23047H91.5207C91.8671 8.40104 92.4094 7.74479 93.1477 7.26172C93.8859 6.76953 94.8339 6.52344 95.9914 6.52344C97.0305 6.52344 97.9374 6.74219 98.7121 7.17969C99.496 7.60807 100.102 8.25065 100.53 9.10742C100.968 9.96419 101.187 11.026 101.187 12.293V22H98.2336V12.6484C98.2336 11.5456 97.9419 10.6797 97.3586 10.0508C96.7753 9.41276 95.9823 9.09375 94.9797 9.09375C94.2961 9.09375 93.6809 9.2487 93.134 9.55859C92.5962 9.85938 92.1724 10.2923 91.8625 10.8574C91.5526 11.4225 91.3977 12.1152 91.3977 12.9355ZM110.3 6.71484V9.10742H101.96V6.71484H110.3ZM104.189 3.07812H107.155V17.5156C107.155 18.2174 107.301 18.7324 107.593 19.0605C107.884 19.3796 108.354 19.5391 109.001 19.5391C109.156 19.5391 109.32 19.5299 109.493 19.5117C109.675 19.4935 109.858 19.4661 110.04 19.4297L110.601 21.8906C110.3 21.9909 109.972 22.0684 109.616 22.123C109.261 22.1777 108.905 22.2051 108.55 22.2051C107.228 22.2051 106.171 21.8359 105.378 21.0977C104.585 20.3503 104.189 19.3568 104.189 18.1172V3.07812Z" fill="white"/>
<rect width="22" height="22" rx="5" fill="white"/>
<path d="M18.8569 17.8095H16.6302L10.8554 8.84284L11.9756 7.12288L18.8569 17.8095ZM8.72998 12.1028L12.404 17.8095H14.628L9.84752 10.3878L8.72998 12.1028ZM11.1978 5.90791L10.0912 4.19043L8.96825 5.90538L3.14258 14.8053H5.37477L10.0748 7.62286L11.1978 5.90791Z" fill="#191818"/>
</svg>
