<svg width="13" height="12" viewBox="0 0 13 12" fill="none" xmlns="http://www.w3.org/2000/svg">
<path d="M3.97437 11.5661C3.6697 12.0267 3.05293 12.1477 2.59678 11.8364C2.14062 11.525 2.01783 10.8992 2.3225 10.4386L3.14844 11.0023L3.97437 11.5661ZM9.56555 0.0184884C10.1035 -0.0870732 10.6265 0.269881 10.7336 0.815769L12.4791 9.71151C12.5862 10.2574 12.2369 10.7855 11.6989 10.8911C11.1609 10.9966 10.638 10.6397 10.5309 10.0938L8.97933 2.18645L1.18646 3.71554C0.648476 3.8211 0.125521 3.46415 0.0184097 2.91826C-0.0887019 2.37237 0.26059 1.84427 0.798576 1.73871L9.56555 0.0184884ZM3.14844 11.0023L2.3225 10.4386L8.93356 0.443142L9.7595 1.0069L10.5854 1.57067L3.97437 11.5661L3.14844 11.0023Z" fill="white"/>
</svg>
