<svg width="144" height="30" viewBox="0 0 144 30" fill="none" xmlns="http://www.w3.org/2000/svg">
<path d="M17.1703 24.5973C17.2003 21.604 16.4226 19.1699 15.4334 19.1604C14.444 19.151 13.6178 21.5699 13.5878 24.5631C13.5578 27.5564 14.3355 29.9906 15.3247 30C16.3141 30.0094 17.1403 27.5906 17.1703 24.5973Z" fill="#191818"/>
<path d="M11.4328 23.9175C13.1166 21.4152 13.8111 18.9572 12.9842 18.4274C12.1571 17.8975 10.1218 19.4964 8.43804 21.9986C6.75424 24.5008 6.05969 26.9588 6.88665 27.4887C7.71368 28.0186 9.74899 26.4197 11.4328 23.9175Z" fill="#191818"/>
<path d="M6.97595 20.3275C9.77887 19.1109 11.7251 17.4096 11.323 16.5276C10.9209 15.6455 8.3228 15.9167 5.51989 17.1333C2.717 18.3498 0.770763 20.0511 1.17285 20.9332C1.57492 21.8153 4.17306 21.5441 6.97595 20.3275Z" fill="#191818"/>
<path d="M10.9866 14.054C11.1371 13.0998 8.80118 11.9572 5.76927 11.5018C2.73728 11.0464 0.157382 11.4508 0.0068827 12.4049C-0.143617 13.3591 2.19227 14.5017 5.22423 14.957C8.25616 15.4124 10.8361 15.0081 10.9866 14.054Z" fill="#191818"/>
<path d="M12.0751 11.7809C12.7303 11.0576 11.398 8.86423 9.09943 6.8819C6.80083 4.89959 4.40633 3.879 3.75116 4.60237C3.096 5.32574 4.42828 7.51913 6.7269 9.50146C9.0255 11.4838 11.42 12.5043 12.0751 11.7809Z" fill="#191818"/>
<path d="M14.2431 10.4525C15.195 10.1897 15.2896 7.64162 14.4543 4.76133C13.6191 1.88102 12.1702 -0.240846 11.2183 0.0220102C10.2663 0.284866 10.1718 2.8329 11.007 5.71323C11.8423 8.59349 13.2911 10.7154 14.2431 10.4525Z" fill="#191818"/>
<path d="M20.1298 5.80285C21.0231 2.93917 20.98 0.389803 20.0336 0.108685C19.0871 -0.172439 17.5957 1.92113 16.7023 4.78481C15.8091 7.64847 15.8521 10.1978 16.7986 10.479C17.7451 10.7601 19.2365 8.66654 20.1298 5.80285Z" fill="#191818"/>
<path d="M24.3361 9.67228C26.674 7.73417 28.05 5.56661 27.4094 4.83092C26.7688 4.0952 24.3543 5.06994 22.0165 7.00798C19.6786 8.94608 18.3027 11.1136 18.9432 11.8494C19.5837 12.5851 21.9982 11.6104 24.3361 9.67228Z" fill="#191818"/>
<path d="M25.7269 15.148C28.7675 14.7511 31.126 13.6536 30.9948 12.6967C30.8636 11.7399 28.2924 11.286 25.2518 11.6829C22.2113 12.0799 19.8527 13.1773 19.9839 14.1342C20.1151 15.091 22.6863 15.545 25.7269 15.148Z" fill="#191818"/>
<path d="M29.6493 21.2067C30.0691 20.3325 28.1576 18.5941 25.3799 17.3239C22.6021 16.0536 20.01 15.7325 19.5901 16.6066C19.1703 17.4808 21.0818 19.2192 23.8596 20.4895C26.6373 21.7597 29.2294 22.0808 29.6493 21.2067Z" fill="#191818"/>
<path d="M23.8063 27.6565C24.6439 27.1427 23.9991 24.6718 22.3663 22.1377C20.7334 19.6035 18.7307 17.9659 17.8932 18.4797C17.0557 18.9935 17.7004 21.4644 19.3333 23.9985C20.9661 26.5326 22.9688 28.1704 23.8063 27.6565Z" fill="#191818"/>
<path d="M42.59 23H40.04V0.919998H42.86V10.85C43.82 8.93 45.8 7.91 48.2 7.91C52.4 7.91 54.92 11.21 54.92 15.74C54.92 20.18 52.28 23.36 48.02 23.36C45.71 23.36 43.76 22.34 42.8 20.33L42.59 23ZM42.89 15.62C42.89 18.68 44.63 20.81 47.51 20.81C50.39 20.81 52.1 18.65 52.1 15.62C52.1 12.62 50.39 10.46 47.51 10.46C44.63 10.46 42.89 12.62 42.89 15.62ZM59.7083 23H56.8883V0.919998H59.7083V23ZM61.6995 15.65C61.6995 11.12 64.9395 7.94 69.3495 7.94C73.7295 7.94 76.9695 11.12 76.9695 15.65C76.9695 20.18 73.7295 23.36 69.3495 23.36C64.9395 23.36 61.6995 20.18 61.6995 15.65ZM64.5495 15.65C64.5495 18.71 66.4995 20.84 69.3495 20.84C72.1695 20.84 74.1495 18.71 74.1495 15.65C74.1495 12.59 72.1695 10.46 69.3495 10.46C66.4995 10.46 64.5495 12.59 64.5495 15.65ZM77.6912 18.74H80.3912C80.3912 20.24 81.5312 21.14 83.3912 21.14C85.3712 21.14 86.5112 20.33 86.5112 18.98C86.5112 17.99 86.0312 17.39 84.5012 17L81.9212 16.4C79.3112 15.77 78.0812 14.48 78.0812 12.32C78.0812 9.62 80.3612 7.91 83.6012 7.91C86.8112 7.91 88.9112 9.71 88.9712 12.5H86.2712C86.2112 11.03 85.2212 10.1 83.5112 10.1C81.7412 10.1 80.7512 10.88 80.7512 12.23C80.7512 13.22 81.4712 13.88 82.9112 14.24L85.4912 14.87C87.9812 15.47 89.2112 16.61 89.2112 18.8C89.2112 21.59 86.8112 23.36 83.3312 23.36C79.8812 23.36 77.6912 21.53 77.6912 18.74ZM89.9384 18.74H92.6384C92.6384 20.24 93.7784 21.14 95.6384 21.14C97.6184 21.14 98.7584 20.33 98.7584 18.98C98.7584 17.99 98.2784 17.39 96.7484 17L94.1684 16.4C91.5584 15.77 90.3284 14.48 90.3284 12.32C90.3284 9.62 92.6084 7.91 95.8484 7.91C99.0584 7.91 101.158 9.71 101.218 12.5H98.5184C98.4584 11.03 97.4684 10.1 95.7584 10.1C93.9884 10.1 92.9984 10.88 92.9984 12.23C92.9984 13.22 93.7184 13.88 95.1584 14.24L97.7384 14.87C100.228 15.47 101.458 16.61 101.458 18.8C101.458 21.59 99.0584 23.36 95.5784 23.36C92.1284 23.36 89.9384 21.53 89.9384 18.74ZM102.426 15.65C102.426 11.12 105.666 7.94 110.076 7.94C114.456 7.94 117.696 11.12 117.696 15.65C117.696 20.18 114.456 23.36 110.076 23.36C105.666 23.36 102.426 20.18 102.426 15.65ZM105.276 15.65C105.276 18.71 107.226 20.84 110.076 20.84C112.896 20.84 114.876 18.71 114.876 15.65C114.876 12.59 112.896 10.46 110.076 10.46C107.226 10.46 105.276 12.59 105.276 15.65ZM122.437 23H119.617V8.33H122.137L122.407 10.25C123.157 8.87 124.717 7.91 126.787 7.91C129.067 7.91 130.687 9.05 131.437 10.88C132.127 9.05 133.897 7.91 136.177 7.91C139.537 7.91 141.577 10.01 141.577 13.4V23H138.817V14.09C138.817 11.78 137.527 10.46 135.547 10.46C133.417 10.46 132.007 11.96 132.007 14.3V23H129.217V14.06C129.217 11.75 127.957 10.49 125.977 10.49C123.847 10.49 122.437 11.96 122.437 14.3V23Z" fill="#191818"/>
<path d="M39 29H74.3041M76.093 29H91M92.7888 29H105.311M107.1 29H110.081M111.87 29H143" stroke="#191818" stroke-width="2"/>
</svg>
