<svg width="140" height="30" viewBox="0 0 140 30" fill="none" xmlns="http://www.w3.org/2000/svg">
<path d="M5.31859 29.24H-0.00140622L10.5586 -1.00136e-05H15.7986L26.3586 29.24H20.9586L18.5986 22.48H7.67859L5.31859 29.24ZM12.5186 8.71999L9.19859 18.16H17.1186L13.7586 8.71999C13.5186 7.95999 13.2386 7.07999 13.1586 6.47999C13.0386 7.03999 12.7986 7.91999 12.5186 8.71999ZM31.5673 29.24L20.5273 -1.00136e-05H25.9673L32.3673 16.84C33.0073 18.6 33.5673 20.32 34.2073 22.68C34.9273 20.12 35.5273 18.32 36.0873 16.84L42.4073 -1.00136e-05H47.7273L36.8473 29.24H31.5673ZM67.1352 29.24H48.9752V-1.00136e-05H67.1352V4.71999H54.0952V12.24H65.7752V16.76H54.0952V24.52H67.1352V29.24ZM75.4061 29.24H70.2861V-1.00136e-05H81.4461C88.0861 -1.00136e-05 91.9661 3.35999 91.9661 9.11999C91.9661 13.04 90.1261 15.84 86.6861 17.24L92.2461 29.24H86.6461L81.6861 18.32H75.4061V29.24ZM75.4061 4.55999V13.8H81.4461C84.6861 13.8 86.6061 12.08 86.6061 9.11999C86.6061 6.19999 84.6861 4.55999 81.4461 4.55999H75.4061ZM112.843 29.24H94.683V-1.00136e-05H112.843V4.71999H99.803V12.24H111.483V16.76H99.803V24.52H112.843V29.24ZM121.034 29.24H115.994V-1.00136e-05H121.074L134.794 20.72V-1.00136e-05H139.834V29.24H134.794L121.034 8.51999V29.24Z" fill="#191818"/>
</svg>
