<svg width="158" height="30" viewBox="0 0 158 30" fill="none" xmlns="http://www.w3.org/2000/svg">
<path d="M35.9805 24.1193C35.9805 26.8811 33.7458 29.12 30.9898 29.12C28.2338 29.12 26 26.8811 26 24.1193V19.1195H30.9898C32.3146 19.1208 33.5846 19.6483 34.5205 20.5859C35.4564 21.5236 35.9816 22.7945 35.9805 24.1193Z" fill="#191818"/>
<path d="M14.3256 29.12L32 10.2502V0.119997H23.7519V6.60855L10.9148 20.3141H8.24807V0.119997H0V29.12H14.3256Z" fill="#191818"/>
<path d="M57.56 28.12L47.2 0.119993H51.92L60.2 23.56L68.56 0.119993H73.2L62.84 28.12H57.56ZM80.1303 28.6C78.157 28.6 76.4103 28.1733 74.8903 27.32C73.397 26.44 72.2103 25.2267 71.3303 23.68C70.477 22.1333 70.0503 20.3333 70.0503 18.28C70.0503 16.2267 70.477 14.4133 71.3303 12.84C72.1836 11.24 73.3703 9.99999 74.8903 9.11999C76.4103 8.23999 78.1703 7.79999 80.1703 7.79999C82.117 7.79999 83.8103 8.22666 85.2503 9.07999C86.717 9.93333 87.8503 11.08 88.6503 12.52C89.4503 13.96 89.8503 15.5733 89.8503 17.36C89.8503 17.6267 89.8503 17.92 89.8503 18.24C89.8503 18.5333 89.8236 18.8667 89.7703 19.24H73.2903V16.28H85.4503C85.3703 14.7867 84.8236 13.6 83.8103 12.72C82.8236 11.84 81.6103 11.4 80.1703 11.4C79.1303 11.4 78.1703 11.64 77.2903 12.12C76.4103 12.5733 75.7036 13.2533 75.1703 14.16C74.637 15.04 74.3703 16.1733 74.3703 17.56V18.68C74.3703 20.0133 74.637 21.16 75.1703 22.12C75.7036 23.0533 76.397 23.76 77.2503 24.24C78.1303 24.72 79.0903 24.96 80.1303 24.96C81.3036 24.96 82.2903 24.6933 83.0903 24.16C83.8903 23.6267 84.477 22.9067 84.8503 22H89.2903C88.9436 23.2533 88.3436 24.3867 87.4903 25.4C86.6636 26.3867 85.6236 27.1733 84.3703 27.76C83.1436 28.32 81.7303 28.6 80.1303 28.6ZM100.876 28.6C98.9026 28.6 97.1426 28.16 95.5959 27.28C94.0759 26.4 92.8759 25.1867 91.9959 23.64C91.1159 22.0667 90.6759 20.2533 90.6759 18.2C90.6759 16.1467 91.1159 14.3467 91.9959 12.8C92.8759 11.2267 94.0759 9.99999 95.5959 9.11999C97.1426 8.23999 98.9026 7.79999 100.876 7.79999C103.329 7.79999 105.396 8.43999 107.076 9.71999C108.756 11 109.823 12.7467 110.276 14.96H105.716C105.449 13.8933 104.876 13.0667 103.996 12.48C103.116 11.8667 102.063 11.56 100.836 11.56C99.8493 11.56 98.9159 11.8267 98.0359 12.36C97.1826 12.8667 96.4893 13.6133 95.9559 14.6C95.4493 15.56 95.1959 16.76 95.1959 18.2C95.1959 19.6133 95.4493 20.8267 95.9559 21.84C96.4893 22.8267 97.1826 23.5733 98.0359 24.08C98.9159 24.5867 99.8493 24.84 100.836 24.84C102.063 24.84 103.116 24.5467 103.996 23.96C104.876 23.3733 105.449 22.5333 105.716 21.44H110.276C109.849 23.5733 108.783 25.3067 107.076 26.64C105.396 27.9467 103.329 28.6 100.876 28.6ZM119.99 28.6C117.483 28.6 115.39 28.0133 113.71 26.84C112.057 25.6667 111.11 24.0133 110.87 21.88H115.39C115.577 22.8667 116.097 23.6533 116.95 24.24C117.803 24.8267 118.87 25.12 120.15 25.12C121.403 25.12 122.363 24.8667 123.03 24.36C123.723 23.8533 124.07 23.2267 124.07 22.48C124.07 21.8667 123.843 21.4 123.39 21.08C122.963 20.76 122.163 20.5067 120.99 20.32C120.537 20.24 120.003 20.16 119.39 20.08C118.777 19.9733 118.243 19.8667 117.79 19.76C116.777 19.5733 115.817 19.2533 114.91 18.8C114.03 18.3467 113.31 17.7333 112.75 16.96C112.19 16.16 111.91 15.16 111.91 13.96C111.91 12.2267 112.563 10.7733 113.87 9.59999C115.177 8.39999 117.03 7.79999 119.43 7.79999C121.803 7.79999 123.71 8.33333 125.15 9.39999C126.617 10.44 127.457 12 127.67 14.08H123.35C123.27 13.12 122.857 12.4133 122.11 11.96C121.363 11.5067 120.47 11.28 119.43 11.28C118.337 11.28 117.47 11.5067 116.83 11.96C116.19 12.4133 115.87 12.9733 115.87 13.64C115.87 14.8667 116.843 15.6533 118.79 16C119.083 16.0533 119.417 16.12 119.79 16.2C120.19 16.2533 120.59 16.32 120.99 16.4C121.417 16.4533 121.777 16.5067 122.07 16.56C122.763 16.64 123.47 16.8 124.19 17.04C124.91 17.2533 125.577 17.56 126.19 17.96C126.803 18.36 127.297 18.8933 127.67 19.56C128.043 20.2267 128.23 21.0667 128.23 22.08C128.23 23.36 127.897 24.4933 127.23 25.48C126.59 26.44 125.657 27.2 124.43 27.76C123.203 28.32 121.723 28.6 119.99 28.6ZM139.479 28.6C137.506 28.6 135.733 28.1733 134.159 27.32C132.586 26.44 131.333 25.2133 130.399 23.64C129.493 22.0667 129.039 20.2533 129.039 18.2C129.039 16.12 129.493 14.3067 130.399 12.76C131.333 11.1867 132.586 9.97333 134.159 9.11999C135.759 8.23999 137.533 7.79999 139.479 7.79999C141.479 7.79999 143.253 8.23999 144.799 9.11999C146.373 9.97333 147.613 11.1867 148.519 12.76C149.453 14.3067 149.919 16.12 149.919 18.2C149.919 20.2533 149.453 22.0667 148.519 23.64C147.613 25.2133 146.373 26.44 144.799 27.32C143.226 28.1733 141.453 28.6 139.479 28.6ZM139.439 24.8C140.533 24.8 141.519 24.56 142.399 24.08C143.306 23.5733 144.026 22.84 144.559 21.88C145.093 20.8933 145.359 19.6667 145.359 18.2C145.359 16.7333 145.093 15.52 144.559 14.56C144.026 13.5733 143.306 12.84 142.399 12.36C141.519 11.8533 140.559 11.6 139.519 11.6C138.453 11.6 137.466 11.8533 136.559 12.36C135.653 12.84 134.933 13.5733 134.399 14.56C133.866 15.52 133.599 16.7333 133.599 18.2C133.599 19.6667 133.866 20.8933 134.399 21.88C134.933 22.84 135.639 23.5733 136.519 24.08C137.426 24.56 138.399 24.8 139.439 24.8ZM151.446 28.12V8.27999H155.846V28.12H151.446ZM151.326 4.75999V-5.24521e-06H156.006V4.75999H151.326Z" fill="#191818"/>
</svg>
