<svg width="125" height="31" viewBox="0 0 125 31" fill="none" xmlns="http://www.w3.org/2000/svg">
<path d="M56.504 23.136H40.152V20.224L52.568 2.87999H40.344V-1.52588e-05H56.472V2.81598L43.96 20.224H56.504V23.136ZM56.5482 30.144V27.68H58.5642C60.0042 27.68 61.1562 27.456 61.8922 25.472L62.4362 23.968L56.1322 7.48799H59.3002L63.8442 20.096L68.4843 7.48799H71.5883L64.1962 26.656C63.1402 29.344 61.5722 30.464 59.1722 30.464C58.1802 30.464 57.3482 30.336 56.5482 30.144ZM75.7178 23.136H72.7098V7.48799H75.4298L75.7498 9.88799C76.7418 8.09599 78.7258 7.03999 80.9338 7.03999C85.0618 7.03999 86.9498 9.56799 86.9498 13.568V23.136H83.9418V14.24C83.9418 11.072 82.4698 9.79199 80.1658 9.79199C77.3498 9.79199 75.7178 11.808 75.7178 14.848V23.136ZM88.812 15.296C88.812 10.464 92.268 7.07199 96.972 7.07199C101.644 7.07199 105.1 10.464 105.1 15.296C105.1 20.128 101.644 23.52 96.972 23.52C92.268 23.52 88.812 20.128 88.812 15.296ZM91.852 15.296C91.852 18.56 93.932 20.832 96.972 20.832C99.98 20.832 102.092 18.56 102.092 15.296C102.092 12.032 99.98 9.75999 96.972 9.75999C93.932 9.75999 91.852 12.032 91.852 15.296ZM106.126 15.2C106.126 10.4 108.942 7.03999 113.422 7.03999C115.886 7.03999 118.03 8.15999 119.054 10.304L119.31 7.48799H121.998V30.144H119.022V20.576C117.966 22.496 115.886 23.552 113.39 23.552C108.782 23.552 106.126 19.968 106.126 15.2ZM109.166 15.328C109.166 18.528 110.958 20.832 114.03 20.832C117.102 20.832 118.99 18.528 118.99 15.328C118.99 12.064 117.102 9.79199 114.03 9.79199C110.958 9.79199 109.166 12.096 109.166 15.328Z" fill="#191818"/>
<path d="M9 20.136V0.135986L26.5 10.636L9 20.136Z" fill="#191818"/>
<path d="M7 20.136V0.135986L0 10.636L7 20.136Z" fill="#191818"/>
<path d="M26.5 11.136L10 22.136L16 24.136L26.5 11.136Z" fill="#191818"/>
</svg>
