<svg width="98" height="30" viewBox="0 0 98 30" fill="none" xmlns="http://www.w3.org/2000/svg">
<path d="M10.9616 28.64L0.00156253 1.38283e-05H3.08156L10.7216 19.92C11.3216 21.48 11.8816 23.04 12.5216 25.04C13.1216 22.96 13.8416 20.96 14.2816 19.88L21.8816 1.38283e-05H24.8416L13.9616 28.64H10.9616ZM21.3778 18.96C21.3778 13.04 25.5378 8.76001 31.2178 8.76001C36.8978 8.76001 41.0578 13.04 41.0578 18.96C41.0578 24.84 36.8978 29.12 31.2178 29.12C25.5378 29.12 21.3778 24.84 21.3778 18.96ZM24.1778 18.92C24.1778 23.48 27.0578 26.64 31.2178 26.64C35.3378 26.64 38.2578 23.48 38.2578 18.92C38.2578 14.44 35.3378 11.24 31.2178 11.24C27.0578 11.24 24.1778 14.44 24.1778 18.92ZM53.1922 9.04001V11.52H51.6722C48.1122 11.52 45.8322 13.92 45.8322 17.6V28.64H43.0722V9.28001H45.6722L45.8722 12.28C46.6322 10.2 48.6722 8.84001 51.3922 8.84001C51.9922 8.84001 52.5122 8.88001 53.1922 9.04001ZM59.6825 28.64H56.9625V11.6H53.0825V9.28001H56.9625V3.16001H59.6825V9.28001H63.5625V11.6H59.6825V28.64ZM72.6813 29.12C67.0013 29.12 63.2013 25.04 63.2013 18.96C63.2013 12.92 66.9613 8.76001 72.4813 8.76001C77.7213 8.76001 81.2813 12.48 81.2813 17.96V19.32H65.8813C66.0813 24.04 68.5613 26.76 72.7213 26.76C75.8813 26.76 77.9213 25.4 78.6413 22.84H81.2813C80.2413 26.92 77.2413 29.12 72.6813 29.12ZM72.4813 11.12C68.8413 11.12 66.4413 13.52 65.9613 17.32H78.5213C78.5213 13.6 76.1213 11.12 72.4813 11.12ZM83.39 28.64H80.15L87.07 18.96L80.19 9.28001H83.43L88.91 17.04L94.35 9.28001H97.55L90.67 19L97.51 28.64H94.23L88.79 20.88L83.39 28.64Z" fill="#191818"/>
</svg>
