<svg width="25" height="27" viewBox="0 0 25 27" fill="none" xmlns="http://www.w3.org/2000/svg">
<path d="M25 5.26274V8.64627C25 12.2938 24.3548 15.5273 23.0829 18.2566C22.0579 20.4555 20.6274 22.3316 18.8313 23.833C17.2326 25.1694 15.6341 25.9544 14.5748 26.3773C13.4158 26.8403 12.6332 26.9849 12.6003 26.9909C12.5672 26.9969 12.5335 27 12.5 27C12.4663 27 12.4329 26.9969 12.3997 26.9909C12.3669 26.9849 11.5842 26.8403 10.4252 26.3773C9.36561 25.9544 7.76718 25.1694 6.16843 23.833C4.37231 22.3316 2.94186 20.4555 1.91714 18.2566C0.644899 15.5273 0 12.2938 0 8.64627V5.26274C0 4.99729 0.193054 4.76992 0.458171 4.72329C2.01254 4.45103 3.59484 4.0395 5.16101 3.49977C6.41684 3.06692 7.66517 2.55135 8.87113 1.96759C10.9289 0.971143 12.1657 0.109995 12.1781 0.101451C12.3709 -0.0338171 12.6294 -0.0338171 12.8219 0.101451C12.834 0.109963 14.0708 0.971143 16.1285 1.96759C17.3348 2.55135 18.5831 3.06692 19.839 3.49977C21.4051 4.0395 22.9871 4.45103 24.5415 4.72329C24.8067 4.76992 25 4.99729 25 5.26274Z" fill="#191818"/>
<path d="M18 10L11.125 17L8 13.8182" stroke="white" stroke-width="2" stroke-linecap="round" stroke-linejoin="round"/>
</svg>
