<svg width="613" height="626" viewBox="0 0 613 626" fill="none" xmlns="http://www.w3.org/2000/svg">
<path d="M593 0C604.046 7.5056e-06 613 8.95431 613 20V420C613 431.046 603.697 439.629 593.525 443.935C575.586 451.528 563 469.294 563 490C563 510.706 575.586 528.472 593.525 536.065C603.697 540.371 613 548.954 613 560V606C613 617.046 604.046 626 593 626H20C8.95431 626 4.3893e-07 617.046 0 606V560C0 548.954 9.30286 540.371 19.4748 536.065C37.4139 528.472 50 510.706 50 490C50 469.294 37.4139 451.528 19.4748 443.935C9.30286 439.629 0 431.046 0 420V20C0 8.95431 8.95431 1.00665e-07 20 0H593Z" fill="#EEECE6"/>
</svg>
