<svg width="785" height="763" viewBox="0 0 785 763" fill="none" xmlns="http://www.w3.org/2000/svg">
<path d="M754.269 747.679C754.269 755.956 747.558 762.666 739.278 762.666H648.585C640.306 762.666 633.594 755.956 633.594 747.679V704.59V661.502C633.594 653.225 640.306 646.514 648.585 646.514H739.278C747.558 646.514 754.269 653.225 754.269 661.502V747.679Z" fill="#EEECE6"/>
<path d="M593.869 634.525C629.846 639.075 634.843 681.735 633.594 692.975L677.442 646.514C646.561 645.316 633.594 621.411 629.846 598.555L593.869 634.525Z" fill="#EEECE6"/>
<path d="M187.688 409.533H14.9908C6.71169 409.533 0 402.823 0 394.546V14.9875C0 6.71022 6.71169 0.000183105 14.9908 0.000183105H445.086C453.365 0.000183105 460.077 6.71022 460.077 14.9875V65.8506C460.077 74.1279 466.789 80.838 475.068 80.838H770.009C778.288 80.838 785 87.548 785 95.8253V464.419C785 472.696 778.288 479.406 770.009 479.406H644.837C636.558 479.406 629.846 486.116 629.846 494.393V634.525H103.136C94.8568 634.525 88.1453 627.815 88.1453 619.537V466.452C88.1453 458.174 94.8568 451.464 103.136 451.464H187.688C195.967 451.464 202.679 444.754 202.679 436.477V424.521C202.679 416.243 195.967 409.533 187.688 409.533Z" fill="#EEECE6"/>
</svg>
