<svg width="13" height="13" viewBox="0 0 13 13" fill="none" xmlns="http://www.w3.org/2000/svg">
<path d="M2.3 8.3H1.7C1.38174 8.3 1.07652 8.17357 0.851472 7.94853C0.626428 7.72348 0.5 7.41826 0.5 7.1V1.7C0.5 1.38174 0.626428 1.07652 0.851472 0.851472C1.07652 0.626428 1.38174 0.5 1.7 0.5H7.1C7.41826 0.5 7.72348 0.626428 7.94853 0.851472C8.17357 1.07652 8.3 1.38174 8.3 1.7V2.3M5.9 4.7H11.3C11.9627 4.7 12.5 5.23726 12.5 5.9V11.3C12.5 11.9627 11.9627 12.5 11.3 12.5H5.9C5.23726 12.5 4.7 11.9627 4.7 11.3V5.9C4.7 5.23726 5.23726 4.7 5.9 4.7Z" stroke="black" stroke-linecap="round" stroke-linejoin="round"/>
</svg>
