<svg width="785" height="682" viewBox="0 0 785 682" fill="none" xmlns="http://www.w3.org/2000/svg">
<path d="M27.4758 13.3998C27.4758 5.9993 33.4765 0 40.8786 0H121.966C129.368 0 135.369 5.9993 135.369 13.3998V90.4486C135.369 97.8492 129.368 103.848 121.966 103.848H40.8786C33.4765 103.848 27.4758 97.8492 27.4758 90.4486V13.3998Z" fill="#EEECE6"/>
<path d="M170.886 114.568C138.719 110.5 134.252 72.3589 135.369 62.3091L96.1653 103.848C123.775 104.92 135.369 126.293 138.719 146.728L170.886 114.568Z" fill="#EEECE6"/>
<path d="M534.043 387.254H771.597C778.999 387.254 785 393.254 785 400.654V668.483C785 675.883 778.999 681.882 771.597 681.882H303.909C296.507 681.882 290.506 675.883 290.506 668.483V623.007C290.506 615.606 284.506 609.607 277.103 609.607H13.4028C6.00065 609.607 0 603.608 0 596.207V266.656C0 259.256 6.00065 253.256 13.4028 253.256H125.316C132.719 253.256 138.719 247.257 138.719 239.856V114.568H692.789C700.191 114.568 706.191 120.568 706.191 127.968V336.365C706.191 343.765 700.191 349.765 692.789 349.765H534.043C526.641 349.765 520.64 355.764 520.64 363.164V373.854C520.64 381.255 526.641 387.254 534.043 387.254Z" fill="#EEECE6"/>
</svg>
