<svg width="36" height="46" viewBox="0 0 36 46" fill="none" xmlns="http://www.w3.org/2000/svg">
<path fill-rule="evenodd" clip-rule="evenodd" d="M26.641 6.82154L23.8713 5.47708C23.5744 5.33147 23.3894 5.03056 23.3992 4.70051C23.4089 4.37047 23.6085 4.07926 23.9103 3.95307L33.0956 0.0653102C33.3341 -0.0317623 33.6018 -0.0220763 33.8306 0.104118C34.0545 0.225458 34.2103 0.443887 34.2541 0.696275L35.987 10.9277C36.0454 11.2529 35.9042 11.5781 35.6316 11.7625C35.3639 11.947 35.0086 11.9567 34.7262 11.7868L32.0295 10.1754C27.5659 17.5238 21.2866 24.4402 9.15634 24.4402C6.59595 24.4402 3.77756 24.1344 0.662247 23.4549C0.229024 23.3627 -0.0581521 22.9501 0.00999532 22.5133C0.0732751 22.0813 0.457805 21.7707 0.905631 21.7998C1.66012 21.8629 19.2568 23.0423 26.641 6.82154ZM8.60142 22.7705C20.6148 23.0084 26.5096 16.2278 31.0122 8.59795C31.1242 8.40381 31.314 8.26306 31.5282 8.20967C31.7472 8.15628 31.976 8.19026 32.1707 8.30189L34.0253 9.41339L32.7743 2.02616L26.2662 4.77816L28.1013 5.67124C28.5053 5.86538 28.6806 6.34102 28.5102 6.74873C23.9541 17.5092 15.09 21.3921 8.60142 22.7705Z" fill="#191818"/>
<path fill-rule="evenodd" clip-rule="evenodd" d="M7.55975 32.4972C9.18555 32.4972 10.456 34.0795 10.456 36.0937V42.4035C10.456 44.4177 9.18555 46 7.55975 46H3.60233C1.98139 46 0.710929 44.4177 0.710929 42.4035V36.0937C0.710929 34.0795 1.98139 32.4972 3.60233 32.4972H7.55975ZM7.55975 34.1766H3.60233C2.95979 34.1766 2.39028 35.0745 2.39028 36.0937V42.4035C2.39028 43.4227 2.95979 44.3206 3.60233 44.3206H7.55975C8.20715 44.3206 8.77667 43.4227 8.77667 42.4035V36.0937C8.77667 35.0745 8.20715 34.1766 7.55975 34.1766Z" fill="#191818"/>
<path fill-rule="evenodd" clip-rule="evenodd" d="M19.5245 26.5855C21.1503 26.5855 22.4207 28.1678 22.4207 30.1869V42.4035C22.4207 44.4177 21.1503 46 19.5245 46H15.567C13.9461 46 12.6756 44.4177 12.6756 42.4035V30.1869C12.6756 28.1678 13.9461 26.5855 15.567 26.5855H19.5245ZM19.5245 28.2648H15.567C14.9196 28.2648 14.355 29.1628 14.355 30.1869V42.4035C14.355 43.4227 14.9196 44.3206 15.567 44.3206H19.5245C20.1719 44.3206 20.7365 43.4227 20.7365 42.4035V30.1869C20.7365 29.1628 20.1719 28.2648 19.5245 28.2648Z" fill="#191818"/>
<path fill-rule="evenodd" clip-rule="evenodd" d="M35.5683 23.0909V42.4035C35.5683 44.4177 34.293 46 32.6721 46H28.7146C27.0888 46 25.8184 44.4177 25.8184 42.4035V23.0909C25.8184 21.0718 27.0888 19.4895 28.7146 19.4895H32.6721C34.293 19.4895 35.5683 21.0718 35.5683 23.0909ZM33.8841 23.0909C33.8841 22.0668 33.3195 21.1689 32.6721 21.1689H28.7146C28.0672 21.1689 27.5026 22.0668 27.5026 23.0909V42.4035C27.5026 43.4227 28.0672 44.3206 28.7146 44.3206H32.6721C33.3195 44.3206 33.8841 43.4227 33.8841 42.4035V23.0909Z" fill="#191818"/>
</svg>
