<svg width="41" height="45" viewBox="0 0 41 45" fill="none" xmlns="http://www.w3.org/2000/svg">
<path fill-rule="evenodd" clip-rule="evenodd" d="M12.9404 13.3948C13.0354 13.3583 13.1334 13.3401 13.2345 13.3401H27.77C27.8712 13.3401 27.9677 13.3583 28.0596 13.3948C36.0537 16.543 41 27.0082 41 34.8993C41 38.2069 40.2001 40.5943 38.5544 42.1935C35.6078 45.0547 30.4179 44.9544 24.4051 44.836C23.1409 44.8086 21.8354 44.7859 20.5023 44.7859C18.783 44.7859 17.1236 44.8451 15.5192 44.8998C14.085 44.9499 12.6967 45 11.3866 45C7.59413 45 4.40846 44.59 2.35823 42.6309C0.772286 41.1137 0 38.8038 0 35.5644C0 27.318 5.19914 16.4427 12.9404 13.3948ZM1.59055 35.5644C1.59055 38.3527 2.20194 40.2936 3.4615 41.4964C5.73698 43.6742 10.242 43.5102 15.4595 43.3279C17.0822 43.2687 18.7555 43.2095 20.5023 43.2095C21.8507 43.2155 23.1609 43.2323 24.4327 43.2596C30.0915 43.3735 34.9734 43.4692 37.442 41.0727C38.7705 39.7833 39.4141 37.765 39.4141 34.8993C39.4141 26.5025 34.1322 17.5772 27.6137 14.9165H13.3909C7.66308 17.2719 1.59055 26.0697 1.59055 35.5644Z" fill="#191818"/>
<path fill-rule="evenodd" clip-rule="evenodd" d="M13.6161 11.6635C11.2992 9.21231 9.91558 4.20522 9.91558 0.783639C9.91558 0.350816 10.2695 0 10.7062 0H30.1283C30.5696 0 30.9235 0.350816 30.9235 0.783639C30.9235 4.20522 29.5398 9.21231 27.223 11.6635C27.0713 11.8229 26.8645 11.914 26.6438 11.914H14.1953C13.9747 11.914 13.7632 11.8229 13.6161 11.6635ZM11.5291 1.57183C11.7084 4.46036 12.8254 8.29655 14.5493 10.3377H26.2852C28.0137 8.29655 29.1307 4.46036 29.31 1.57183H11.5291Z" fill="#191818"/>
<path fill-rule="evenodd" clip-rule="evenodd" d="M14.3286 34.635L15.2434 31.8194C15.317 31.5961 15.487 31.4184 15.7077 31.3273C15.9238 31.2408 16.172 31.2544 16.3789 31.3683C16.3881 31.3729 17.3948 31.9059 18.5302 32.1337C19.8725 32.4071 21.2516 32.1429 21.3481 31.7374C21.4309 31.3638 21.4952 31.0904 19.8358 30.6211C19.0405 30.3979 15.0549 29.1222 14.701 26.1334C14.3792 23.418 15.7537 21.5136 18.59 20.7163V18.9212C18.59 18.4884 18.9439 18.133 19.3806 18.133H21.817C22.2537 18.133 22.6077 18.4884 22.6077 18.9212V20.3245C23.5041 20.4338 24.9153 20.6753 25.6738 21.1582C25.9542 21.3359 26.0922 21.6685 26.0186 21.992L25.4348 24.5844C25.3842 24.7985 25.2463 24.9853 25.0487 25.0947C24.8556 25.204 24.6211 25.2268 24.4097 25.1584C24.3867 25.1493 22.1756 24.4295 20.7459 24.5297C20.5575 24.5434 20.2265 24.6026 20.1621 24.8395C20.1116 25.0354 20.2265 25.3316 20.5483 25.532C21.3757 26.0605 22.525 26.5116 23.3662 26.8442C23.8397 27.031 24.2166 27.1813 24.4694 27.3135C24.8924 27.5367 26.9794 28.7987 26.6852 31.9059C26.4507 34.3844 24.543 35.9973 22.6353 36.4529L22.6445 38.2798C22.6491 38.4894 22.5663 38.6899 22.4146 38.8402C22.2675 38.9906 22.0652 39.0726 21.8538 39.0726H19.422C18.9807 39.0726 18.6268 38.7218 18.6268 38.2844V36.7034C17.6292 36.585 15.8686 36.2889 14.6642 35.5462C14.3562 35.3549 14.2137 34.9813 14.3286 34.635ZM16.0479 34.4847C17.2201 34.9813 18.852 35.1681 19.4634 35.2C19.8817 35.2227 20.2127 35.5644 20.2127 35.9836V37.4962H21.0539L21.0448 35.7922C21.0448 35.3822 21.3619 35.0359 21.7756 35.004C23.2513 34.881 24.9199 33.701 25.1038 31.7556C25.3015 29.6461 23.9914 28.8443 23.7293 28.703C23.5501 28.6119 23.1731 28.4661 22.7778 28.3067C21.8768 27.9513 20.6494 27.4684 19.6933 26.8624C18.8244 26.3111 18.3923 25.3452 18.6222 24.4523C18.8428 23.6003 19.6151 23.0308 20.6356 22.9579C21.7665 22.8804 23.1869 23.1857 24.0695 23.418L24.3269 22.2745C23.619 22.0467 22.4974 21.8781 21.7527 21.8189C21.3389 21.787 21.0217 21.4453 21.0217 21.0352V19.7094H20.1759V21.3314C20.1759 21.705 19.9139 22.0239 19.5462 22.1013C17.0684 22.6253 16.0295 23.8463 16.2777 25.9512C16.4754 27.6096 18.9761 28.7395 20.2724 29.1085C21.3573 29.4138 23.3708 29.9878 22.8927 32.0836C22.4882 33.8696 19.8725 34.0154 18.213 33.6782C17.5557 33.5416 16.9443 33.332 16.4846 33.1452L16.0479 34.4847Z" fill="#191818"/>
</svg>
