<svg width="51" height="51" viewBox="0 0 51 51" fill="none" xmlns="http://www.w3.org/2000/svg">
<path d="M10.2762 49.751H41.5763C46.0863 49.751 49.7416 45.9455 49.7416 41.2499C49.7416 37.6894 50.0954 34.0907 46.2115 32.3949M46.2115 32.3949C45.363 34.0406 43.9867 35.3539 42.303 36.1241L14.3044 48.8364M46.2115 32.3949C46.8037 31.2583 47.1406 30.0061 47.1984 28.7258C47.2562 27.4454 47.0337 26.1679 46.5463 24.9826L45.1173 21.5174C43.2176 16.9034 37.9183 14.9979 33.6914 17.4097L25.4908 22.0863M10.2762 38.8626L9.6175 41.1873M19.4811 42.5156C18.1203 47.7203 12.8945 50.8099 7.81298 49.4162C2.73146 48.0197 -0.284241 42.6708 1.07664 37.4661L9.4052 6.93235C10.6354 2.41094 15.159 -0.210444 19.5029 1.07983L22.6874 2.02712C27.083 3.33373 29.5897 8.14096 28.2533 12.6923L19.4811 42.5156Z" stroke="#191818" stroke-width="1.5" stroke-linecap="round" stroke-linejoin="round"/>
</svg>
