<svg width="50" height="50" viewBox="0 0 50 50" fill="none" xmlns="http://www.w3.org/2000/svg">
<path fill-rule="evenodd" clip-rule="evenodd" d="M23.3575 22.3621C23.1228 22.3621 22.8933 22.2739 22.725 22.1025L7.75353 7.25972C7.5903 7.09807 7.49849 6.88253 7.50359 6.6572C7.50869 6.43676 7.60052 6.22122 7.76885 6.06447C11.9772 2.15539 17.5118 0 23.3575 0C23.8421 0 24.24 0.377194 24.24 0.847459V21.5147C24.24 21.8625 24.0206 22.1711 23.689 22.2984C23.5802 22.3409 23.4697 22.3621 23.3575 22.3621ZM22.475 1.70961C17.7107 1.90066 13.2116 3.65436 9.64091 6.70618L22.475 19.4278V1.70961Z" fill="#191818"/>
<path fill-rule="evenodd" clip-rule="evenodd" d="M22.9188 26.5504L5.36115 38.4981C5.20132 38.6026 5.03129 38.6548 4.85105 38.6548C4.5756 38.6548 4.30526 38.5275 4.13182 38.2972C1.4334 34.6429 0 30.3419 0 25.8597C0 19.9863 2.42297 14.4999 6.82513 10.4046C6.98837 10.2528 7.21793 10.1695 7.44747 10.1695C7.68212 10.1695 7.90655 10.2626 8.06978 10.4242L23.0412 25.267C23.2198 25.4482 23.3116 25.6883 23.2861 25.9332C23.2605 26.183 23.1279 26.4035 22.9188 26.5504ZM21.062 25.7372L7.42705 12.222C3.76963 15.9204 1.76496 20.7309 1.76496 25.8597C1.76496 29.7051 2.90757 33.4084 5.0755 36.617L21.062 25.7372Z" fill="#191818"/>
<path fill-rule="evenodd" clip-rule="evenodd" d="M50 28.0102V28.0739C50 28.4658 49.9898 28.8576 49.9694 29.2495C49.9082 30.2978 49.7721 31.3347 49.5613 32.3601C49.4541 32.8696 49.3216 33.3889 49.1634 33.9522C48.6941 35.5491 48.0514 37.0873 47.2403 38.5128C46.4293 39.9481 45.4397 41.3099 44.2869 42.559C43.6577 43.2448 42.9776 43.898 42.2465 44.5185C40.9508 45.6158 39.5327 46.571 38.0381 47.3499C36.5486 48.1287 34.9469 48.7509 33.2891 49.1917C32.7178 49.3452 32.1652 49.4742 31.6313 49.5787C30.5567 49.7845 29.477 49.9135 28.3922 49.9657C27.9875 49.9886 27.5794 50 27.1679 50C27.1526 50 27.0965 50 27.0812 50C26.1426 49.9951 25.153 49.9314 24.1634 49.8041C23.7996 49.7583 23.4357 49.7045 23.0718 49.6424C22.3271 49.5101 21.5823 49.3387 20.7866 49.1134C20.4703 49.0252 20.154 48.9288 19.8378 48.8243C19.0879 48.5794 18.4248 48.3296 17.8025 48.0602C17.5168 47.9361 17.2329 47.8054 16.9506 47.6683C16.3351 47.3711 15.7315 47.0445 15.1398 46.6886L15.0122 46.6151C14.7946 46.4877 14.5804 46.3571 14.3695 46.2232C13.7931 45.846 13.2065 45.4198 12.5791 44.9202C12.3512 44.7373 12.1268 44.5511 11.9057 44.3617C11.3922 43.9176 10.9145 43.4685 10.4724 43.0146C10.2717 42.8089 10.0745 42.5966 9.88064 42.3778C9.40625 41.8487 8.99818 41.354 8.62581 40.8592L8.54418 40.7514C8.34014 40.4771 8.26362 40.144 8.31973 39.8158C8.37584 39.4827 8.57481 39.1888 8.85536 38.9978L25.857 27.4224V7.40178C25.857 6.71108 26.4436 6.14774 27.1679 6.14774C27.474 6.14774 27.7784 6.15428 28.081 6.16734C28.9652 6.2 29.8272 6.27837 30.6672 6.40247C31.0277 6.45799 31.383 6.52004 31.7333 6.58862C32.5019 6.73884 33.2534 6.92499 33.9879 7.14706C34.3042 7.24176 34.6171 7.343 34.9265 7.45077C35.6815 7.71203 36.4177 8.01248 37.1353 8.35211C37.4175 8.48274 37.6947 8.61827 37.9667 8.7587C38.555 9.06241 39.1451 9.40368 39.7368 9.7825C39.9884 9.93926 40.2367 10.1042 40.4815 10.2773C41.0222 10.6528 41.5493 11.0512 42.0628 11.4725C42.2873 11.6587 42.5066 11.8481 42.7208 12.0408C43.2173 12.4849 43.6866 12.9421 44.1287 13.4124C44.3294 13.6246 44.5232 13.8402 44.7102 14.059C45.1931 14.6109 45.6454 15.184 46.0671 15.7784C46.2337 16.0201 46.397 16.265 46.5568 16.5132C46.9275 17.0847 47.2676 17.666 47.577 18.2571C47.7165 18.5281 47.8507 18.8025 47.98 19.08C48.2792 19.7136 48.5462 20.3618 48.7809 21.0248C48.8897 21.3285 48.9917 21.6355 49.0869 21.9457C49.3011 22.6479 49.4813 23.3794 49.6276 24.1403C49.6922 24.4865 49.7483 24.8359 49.796 25.1886C49.9286 26.152 49.9966 27.0925 50 28.0102ZM48.2401 28.0739L48.235 28.0151C48.2316 27.1693 48.1704 26.3006 48.0514 25.409C48.0072 25.0857 47.9545 24.7641 47.8933 24.444C47.7573 23.7419 47.5906 23.0675 47.3933 22.4209C47.3083 22.1302 47.2148 21.8461 47.1128 21.5685C46.8986 20.9611 46.652 20.3618 46.3731 19.7707C46.2541 19.516 46.13 19.2646 46.0008 19.0164C45.7151 18.471 45.4023 17.9338 45.0622 17.4047C44.916 17.1794 44.7646 16.9557 44.6082 16.7336C44.2171 16.1817 43.8006 15.651 43.3585 15.1416C43.1816 14.9391 43.0014 14.7399 42.8178 14.5439C42.4131 14.1129 41.9812 13.6916 41.5221 13.2801C41.3215 13.1005 41.1174 12.9258 40.91 12.756C40.4373 12.3641 39.951 11.995 39.4511 11.6489C39.2233 11.4921 38.9954 11.3403 38.7676 11.1933C38.2167 10.8439 37.6726 10.5304 37.1353 10.2528C36.8802 10.1189 36.6235 9.99151 36.365 9.87068C35.7019 9.56043 35.0218 9.28448 34.3246 9.04281C34.039 8.94158 33.7516 8.84687 33.4626 8.7587C32.7824 8.55622 32.0887 8.38477 31.3813 8.24434C31.0583 8.18229 30.7301 8.12677 30.3969 8.07779C29.6283 7.96349 28.8343 7.89001 28.0147 7.85735C27.8821 7.85409 27.7511 7.85082 27.6219 7.84756V27.8632C27.6219 28.1376 27.4842 28.3923 27.2495 28.5539L10.2479 40.1195C10.537 40.4918 10.8601 40.8755 11.2171 41.2707C11.394 41.4699 11.5759 41.6659 11.7629 41.8585C12.171 42.2798 12.6114 42.6946 13.0841 43.1028C13.2881 43.2791 13.4955 43.4506 13.7064 43.6171C14.2879 44.0825 14.8286 44.4744 15.3591 44.8222C15.5462 44.943 15.7383 45.0606 15.9355 45.1749L16.0681 45.2533C16.6191 45.5798 17.1768 45.8803 17.7413 46.1546C17.9963 46.2787 18.2582 46.3995 18.5268 46.5171C19.0981 46.7669 19.7103 46.9972 20.404 47.2225C20.693 47.3172 20.9855 47.407 21.2814 47.4919C22.021 47.6977 22.7097 47.8593 23.3932 47.9769C23.7231 48.0357 24.0563 48.0846 24.393 48.1238C25.3112 48.2414 26.2174 48.3018 27.1118 48.3051C27.122 48.3051 27.1577 48.3051 27.1679 48.31C27.5488 48.31 27.9263 48.2986 28.3004 48.2757C29.3001 48.2267 30.2965 48.1075 31.2895 47.9181C31.7758 47.8234 32.2842 47.7058 32.8147 47.5654C34.3501 47.1539 35.8243 46.5808 37.1965 45.8656C38.5789 45.1455 39.8847 44.2637 41.0834 43.2497C41.7568 42.675 42.3842 42.0708 42.9657 41.4373C44.0267 40.2812 44.9449 39.0271 45.6947 37.7045C46.4395 36.3868 47.0363 34.976 47.4648 33.5015C47.611 32.9823 47.7335 32.4924 47.8321 32.0319C48.0259 31.0816 48.1517 30.1248 48.2095 29.1614C48.2266 28.8021 48.2367 28.4396 48.2401 28.0739Z" fill="#191818"/>
</svg>
