<svg width="19" height="19" viewBox="0 0 19 19" fill="none" xmlns="http://www.w3.org/2000/svg">
<path d="M0 2.20707C0 1.56733 0.21397 1.03955 0.641892 0.623737C1.06981 0.207906 1.62613 0 2.31081 0C2.98328 0 3.52734 0.204701 3.94305 0.614141C4.37097 1.03636 4.58494 1.58652 4.58494 2.26465C4.58494 2.87879 4.3771 3.39056 3.96139 3.8C3.53347 4.22222 2.97104 4.43333 2.27413 4.43333H2.25579C1.58333 4.43333 1.03926 4.22222 0.623552 3.8C0.207845 3.37778 0 2.84679 0 2.20707ZM0.238417 19L0.238417 6.1798L4.30985 6.1798L4.30985 19H0.238417ZM6.56564 19H10.6371L10.6371 11.8414C10.6371 11.3936 10.686 11.0481 10.7838 10.8051C10.9549 10.37 11.2148 10.0022 11.5632 9.70152C11.9117 9.40084 12.3488 9.2505 12.8745 9.2505C14.2439 9.2505 14.9286 10.2165 14.9286 12.1485L14.9286 19H19V11.6495C19 9.75589 18.5721 8.3197 17.7162 7.34091C16.8604 6.36212 15.7294 5.87273 14.3234 5.87273C12.7461 5.87273 11.5174 6.58283 10.6371 8.00303V8.04141H10.6187L10.6371 8.00303V6.1798L6.56564 6.1798C6.59008 6.58922 6.60232 7.86228 6.60232 9.99899C6.60232 12.1357 6.59008 15.136 6.56564 19Z" fill="#191818"/>
</svg>
