<svg width="20" height="20" viewBox="0 0 20 20" fill="none" xmlns="http://www.w3.org/2000/svg">
<path fill-rule="evenodd" clip-rule="evenodd" d="M9.56622 14.7816C12.4477 14.7816 14.7836 12.4457 14.7836 9.56423C14.7836 6.68274 12.4477 4.34683 9.56622 4.34683C6.68473 4.34683 4.34882 6.68274 4.34882 9.56423C4.34882 12.4457 6.68473 14.7816 9.56622 14.7816ZM9.56622 13.0425C11.4872 13.0425 13.0445 11.4852 13.0445 9.56423C13.0445 7.64323 11.4872 6.08596 9.56622 6.08596C7.64522 6.08596 6.08795 7.64323 6.08795 9.56423C6.08795 11.4852 7.64522 13.0425 9.56622 13.0425Z" fill="#191818"/>
<path d="M14.7837 3.47813C14.3035 3.47813 13.9141 3.86745 13.9141 4.3477C13.9141 4.82794 14.3035 5.21726 14.7837 5.21726C15.264 5.21726 15.6533 4.82794 15.6533 4.3477C15.6533 3.86745 15.264 3.47813 14.7837 3.47813Z" fill="#191818"/>
<path fill-rule="evenodd" clip-rule="evenodd" d="M0.568661 2.84875C0 3.96481 0 5.42582 0 8.34783L0 10.7826C0 13.7046 0 15.1657 0.568661 16.2817C1.06887 17.2634 1.86703 18.0616 2.84875 18.5617C3.96481 19.1304 5.42582 19.1304 8.34783 19.1304H10.7826C13.7046 19.1304 15.1657 19.1304 16.2817 18.5617C17.2634 18.0616 18.0616 17.2634 18.5617 16.2817C19.1304 15.1657 19.1304 13.7046 19.1304 10.7826V8.34783C19.1304 5.42582 19.1304 3.96481 18.5617 2.84875C18.0616 1.86703 17.2634 1.06887 16.2817 0.568661C15.1657 0 13.7046 0 10.7826 0L8.34783 0C5.42582 0 3.96481 0 2.84875 0.568661C1.86703 1.06887 1.06887 1.86703 0.568661 2.84875ZM10.7826 1.73913L8.34783 1.73913C6.85812 1.73913 5.84544 1.74049 5.06268 1.80443C4.30021 1.86673 3.9103 1.97964 3.6383 2.11823C2.98382 2.45171 2.45171 2.98382 2.11823 3.6383C1.97964 3.9103 1.86673 4.30021 1.80443 5.06268C1.74049 5.84544 1.73913 6.85812 1.73913 8.34783L1.73913 10.7826C1.73913 12.2723 1.74049 13.285 1.80443 14.0677C1.86673 14.8303 1.97964 15.2202 2.11823 15.4922C2.45171 16.1466 2.98382 16.6787 3.6383 17.0122C3.9103 17.1508 4.30021 17.2637 5.06268 17.326C5.84544 17.3899 6.85812 17.3913 8.34783 17.3913H10.7826C12.2723 17.3913 13.285 17.3899 14.0677 17.326C14.8303 17.2637 15.2202 17.1508 15.4922 17.0122C16.1466 16.6787 16.6787 16.1466 17.0122 15.4922C17.1508 15.2202 17.2637 14.8303 17.326 14.0677C17.3899 13.285 17.3913 12.2723 17.3913 10.7826V8.34783C17.3913 6.85812 17.3899 5.84544 17.326 5.06268C17.2637 4.30021 17.1508 3.9103 17.0122 3.6383C16.6787 2.98382 16.1466 2.45171 15.4922 2.11823C15.2202 1.97964 14.8303 1.86673 14.0677 1.80443C13.285 1.74049 12.2723 1.73913 10.7826 1.73913Z" fill="#191818"/>
</svg>
